<?xml version="1.0" encoding="utf-8"?>
<!-- Generator: Adobe Illustrator 19.1.0, SVG Export Plug-In . SVG Version: 6.00 Build 0)  -->
<svg version="1.1" id="Layer_1" xmlns="http://www.w3.org/2000/svg" xmlns:xlink="http://www.w3.org/1999/xlink" x="0px" y="0px"
	 viewBox="-79.4 93.4 20.8 14.5" style="enable-background:new -79.4 93.4 20.8 14.5;" xml:space="preserve">
<path d="M-79.4,102.9c0-1.2,0.4-2.2,1.1-3.1s1.6-1.5,2.7-1.7c0.3-1.4,1-2.5,2.1-3.4s2.3-1.3,3.8-1.3c1.4,0,2.6,0.4,3.7,1.3
	c1.1,0.8,1.8,2,2.1,3.3h0.3c0.9,0,1.7,0.2,2.5,0.7c0.8,0.4,1.4,1,1.8,1.8c0.4,0.8,0.7,1.6,0.7,2.5c0,0.9-0.2,1.7-0.6,2.5
	c-0.4,0.8-1,1.3-1.7,1.8c-0.7,0.5-1.5,0.7-2.4,0.7h-11.2c-1.3-0.1-2.5-0.6-3.4-1.5C-78.9,105.4-79.4,104.2-79.4,102.9z M-77.7,102.9
	c0,0.9,0.3,1.6,0.9,2.3s1.3,1,2.2,1h11.2c0.9,0,1.6-0.4,2.2-1c0.6-0.6,0.9-1.4,0.9-2.3c0-0.9-0.3-1.6-1-2.3c-0.7-0.6-1.4-1-2.3-1
	h-1.6c-0.1,0-0.2-0.1-0.2-0.2l-0.1-0.6c-0.1-1.1-0.6-2-1.4-2.7c-0.8-0.7-1.8-1.1-2.9-1.1c-1.1,0-2.1,0.4-2.8,1.1
	c-0.8,0.7-1.3,1.6-1.4,2.7l-0.1,0.6c0,0.1-0.1,0.2-0.2,0.2h-0.5c-0.8,0.1-1.5,0.5-2.1,1.1C-77.4,101.3-77.7,102-77.7,102.9z"/>
</svg>
