<svg version="1.1" xmlns="http://www.w3.org/2000/svg" xmlns:xlink="http://www.w3.org/1999/xlink" x="0px" y="0px"
	 viewBox="-168.4 186.9 20.8 14.6" style="enable-background:new -168.4 186.9 20.8 14.6;" xml:space="preserve">
<path style="fill:#DCDDE1;" d="M-168.4,196.4c0-1.2,0.4-2.2,1.1-3.1c0.7-0.9,1.6-1.5,2.7-1.7c0.3-1.4,1-2.5,2.1-3.4s2.3-1.3,3.8-1.3
	c1.4,0,2.6,0.4,3.7,1.3c1.1,0.8,1.8,2,2.1,3.3h0.3c0.9,0,1.7,0.2,2.5,0.7c0.8,0.4,1.4,1,1.8,1.8c0.4,0.8,0.7,1.6,0.7,2.5
	s-0.2,1.7-0.6,2.5c-0.4,0.8-1,1.3-1.7,1.8c-0.7,0.5-1.5,0.7-2.4,0.7h-11.2c-1.3-0.1-2.5-0.6-3.4-1.5
	C-167.9,198.9-168.4,197.7-168.4,196.4z"/>
</svg>
