<?xml version="1.0" encoding="utf-8"?>
<!-- Generator: Adobe Illustrator 19.1.0, SVG Export Plug-In . SVG Version: 6.00 Build 0)  -->
<svg version="1.1" id="Layer_1" xmlns="http://www.w3.org/2000/svg" xmlns:xlink="http://www.w3.org/1999/xlink" x="0px" y="0px"
	 viewBox="-82.4 86.9 26.9 20.9" style="enable-background:new -82.4 86.9 26.9 20.9;" xml:space="preserve">
<path d="M-82.4,102.9c0,0.9,0.2,1.7,0.7,2.5c0.4,0.8,1,1.4,1.8,1.8s1.6,0.7,2.5,0.7h10.8c0.9,0,1.7-0.2,2.5-0.7s1.4-1,1.8-1.8
	c0.4-0.8,0.7-1.6,0.7-2.5c0-0.7-0.1-1.3-0.4-2c0.8-0.9,1.1-2,1.1-3.3c0-0.7-0.1-1.4-0.4-2s-0.6-1.2-1.1-1.7c-0.5-0.5-1-0.9-1.7-1.1
	c-0.7-0.3-1.3-0.4-2-0.4c-1.5,0-2.8,0.6-3.9,1.7c-0.8-0.4-1.7-0.7-2.7-0.7c-1.4,0-2.6,0.4-3.7,1.3c-1.1,0.9-1.8,2-2.1,3.4
	c-1.1,0.3-2,0.8-2.7,1.7S-82.4,101.8-82.4,102.9z M-80.7,102.9c0-0.8,0.3-1.6,0.8-2.2c0.6-0.6,1.3-1,2.1-1.1l0.5,0
	c0.1,0,0.2-0.1,0.2-0.2l0.1-0.5c0.1-1.1,0.6-2,1.4-2.7c0.8-0.7,1.7-1.1,2.8-1.1c1.1,0,2.1,0.4,2.9,1.1c0.8,0.7,1.3,1.6,1.4,2.7
	l0.1,0.6c0,0.1,0.1,0.2,0.2,0.2h1.6c0.9,0,1.6,0.3,2.3,1c0.6,0.6,1,1.4,1,2.3c0,0.9-0.3,1.7-1,2.3c-0.6,0.6-1.4,1-2.3,1h-10.8
	c-0.9,0-1.6-0.3-2.3-1C-80.4,104.6-80.7,103.8-80.7,102.9z M-74,90.6c0,0.2,0.1,0.4,0.2,0.6l0.7,0.6c0.2,0.2,0.5,0.3,0.6,0.2
	c0.2,0,0.4-0.1,0.6-0.3c0.2-0.2,0.2-0.4,0.2-0.6s-0.1-0.4-0.3-0.6l-0.6-0.7c-0.2-0.2-0.4-0.2-0.6-0.2c-0.2,0-0.4,0.1-0.6,0.2
	C-74,90.2-74,90.4-74,90.6z M-68.7,95.1c0.7-0.7,1.5-1,2.4-1c1,0,1.8,0.3,2.5,1c0.7,0.7,1,1.5,1,2.5c0,0.6-0.2,1.2-0.5,1.8
	c-1-1-2.1-1.4-3.5-1.4H-67C-67.2,96.9-67.8,95.9-68.7,95.1z M-67.1,89.8c0,0.3,0.1,0.5,0.2,0.6c0.2,0.2,0.3,0.2,0.6,0.2
	c0.3,0,0.5-0.1,0.6-0.2c0.2-0.2,0.2-0.4,0.2-0.6v-2.1c0-0.2-0.1-0.4-0.2-0.6c-0.2-0.2-0.4-0.2-0.6-0.2c-0.2,0-0.4,0.1-0.6,0.2
	c-0.2,0.1-0.2,0.3-0.2,0.6V89.8z M-61.5,92.1c0,0.3,0.1,0.5,0.2,0.6c0.2,0.2,0.4,0.2,0.6,0.2c0.2,0,0.4-0.1,0.6-0.2l1.4-1.4
	c0.2-0.2,0.2-0.4,0.2-0.6c0-0.2-0.1-0.4-0.2-0.6c-0.2-0.2-0.4-0.2-0.6-0.2c-0.2,0-0.4,0.1-0.6,0.2l-1.5,1.4
	C-61.5,91.6-61.5,91.8-61.5,92.1z M-60.8,103.9c0,0.2,0.1,0.4,0.2,0.6l0.7,0.6c0.1,0.2,0.3,0.2,0.6,0.2c0.2,0,0.4-0.1,0.6-0.2
	c0.2-0.2,0.2-0.4,0.2-0.6c0-0.2-0.1-0.4-0.2-0.6l-0.7-0.7c-0.2-0.2-0.3-0.2-0.6-0.2c-0.2,0-0.4,0.1-0.6,0.2
	C-60.7,103.5-60.8,103.7-60.8,103.9z M-59.3,97.6c0,0.2,0.1,0.4,0.3,0.6c0.2,0.2,0.4,0.2,0.6,0.2h2c0.2,0,0.4-0.1,0.6-0.2
	s0.2-0.3,0.2-0.6c0-0.2-0.1-0.4-0.2-0.6c-0.2-0.2-0.4-0.2-0.6-0.2h-2c-0.2,0-0.4,0.1-0.6,0.2C-59.2,97.2-59.3,97.4-59.3,97.6z"/>
</svg>
