<svg version="1.1" xmlns="http://www.w3.org/2000/svg" xmlns:xlink="http://www.w3.org/1999/xlink" x="0px" y="0px"
	 viewBox="-167.6 180.7 21.2 21.2" style="enable-background:new -167.6 180.7 21.2 21.2;" xml:space="preserve">
<path style="fill:#FBC531;" d="M-167.6,191.3c0-0.2,0.1-0.5,0.2-0.6c0.2-0.2,0.4-0.2,0.6-0.2h2c0.2,0,0.4,0.1,0.6,0.2c0.2,0.2,0.2,0.4,0.2,0.6
	c0,0.2-0.1,0.4-0.2,0.6c-0.2,0.2-0.4,0.2-0.6,0.2h-2c-0.2,0-0.4-0.1-0.6-0.2C-167.5,191.8-167.6,191.6-167.6,191.3z M-164.8,198.3
	c0-0.2,0.1-0.4,0.2-0.6l1.5-1.4c0.2-0.2,0.4-0.2,0.6-0.2s0.4,0.1,0.6,0.2c0.2,0.2,0.2,0.3,0.2,0.6c0,0.2-0.1,0.5-0.2,0.6l-1.4,1.4
	c-0.4,0.3-0.8,0.3-1.2,0C-164.7,198.7-164.8,198.5-164.8,198.3z M-164.8,184.4c0-0.2,0.1-0.4,0.2-0.6c0.2-0.2,0.4-0.2,0.6-0.2
	s0.4,0.1,0.6,0.2l1.4,1.5c0.2,0.2,0.2,0.4,0.2,0.6s-0.1,0.4-0.2,0.6c-0.2,0.2-0.4,0.2-0.6,0.2c-0.2,0-0.4-0.1-0.6-0.2l-1.5-1.4
	C-164.7,184.9-164.8,184.6-164.8,184.4z M-162.2,191.3c0-0.9,0.2-1.8,0.7-2.6s1.1-1.4,1.9-1.9s1.7-0.7,2.6-0.7c0.7,0,1.4,0.1,2,0.4
	c0.6,0.3,1.2,0.7,1.7,1.1c0.5,0.5,0.8,1,1.1,1.7c0.3,0.6,0.4,1.3,0.4,2c0,0.9-0.2,1.8-0.7,2.6c-0.5,0.8-1.1,1.4-1.9,1.9
	s-1.7,0.7-2.6,0.7c-0.9,0-1.8-0.2-2.6-0.7c-0.8-0.5-1.4-1.1-1.9-1.9C-162,193.1-162.2,192.3-162.2,191.3z M-157.9,199.1
	c0-0.2,0.1-0.4,0.2-0.6c0.2-0.2,0.4-0.2,0.6-0.2c0.2,0,0.4,0.1,0.6,0.2c0.2,0.2,0.2,0.4,0.2,0.6v2c0,0.2-0.1,0.4-0.2,0.6
	c-0.2,0.2-0.4,0.2-0.6,0.2c-0.2,0-0.4-0.1-0.6-0.2c-0.2-0.2-0.2-0.4-0.2-0.6V199.1z M-157.9,183.6v-2c0-0.2,0.1-0.4,0.2-0.6
	c0.2-0.2,0.4-0.3,0.6-0.3c0.2,0,0.4,0.1,0.6,0.2c0.2,0.2,0.2,0.4,0.2,0.6v2.1c0,0.2-0.1,0.4-0.2,0.6c-0.2,0.2-0.4,0.2-0.6,0.2
	c-0.2,0-0.4-0.1-0.6-0.2C-157.8,184-157.9,183.8-157.9,183.6z M-152.3,196.8c0-0.2,0.1-0.4,0.2-0.6c0.2-0.2,0.3-0.2,0.6-0.2
	c0.2,0,0.4,0.1,0.6,0.2l1.5,1.4c0.2,0.2,0.2,0.4,0.2,0.6s-0.1,0.4-0.2,0.6c-0.4,0.3-0.8,0.3-1.2,0l-1.4-1.4
	C-152.3,197.3-152.3,197-152.3,196.8z M-152.3,185.9c0-0.2,0.1-0.5,0.2-0.6l1.4-1.5c0.2-0.2,0.4-0.2,0.6-0.2c0.2,0,0.4,0.1,0.6,0.2
	c0.2,0.2,0.2,0.4,0.2,0.6s-0.1,0.5-0.2,0.6l-1.5,1.4c-0.2,0.2-0.4,0.2-0.6,0.2c-0.2,0-0.4-0.1-0.6-0.2
	C-152.3,186.3-152.3,186.1-152.3,185.9z M-150.1,191.3c0-0.2,0.1-0.4,0.2-0.6c0.2-0.2,0.3-0.2,0.6-0.2h2c0.2,0,0.4,0.1,0.6,0.3
	c0.2,0.2,0.3,0.4,0.3,0.6c0,0.2-0.1,0.4-0.3,0.6c-0.2,0.2-0.4,0.2-0.6,0.2h-2c-0.2,0-0.4-0.1-0.6-0.2
	C-150,191.8-150.1,191.6-150.1,191.3z"/>
</svg>
