<svg version="1.1" xmlns="http://www.w3.org/2000/svg" xmlns:xlink="http://www.w3.org/1999/xlink" x="0px" y="0px"
	 viewBox="-168.4 177 26.8 21" style="enable-background:new -168.4 177 26.8 21;" xml:space="preserve">
<g>
	<circle style="fill:#FBC531;" cx="-152.1" cy="187.7" r="5.3"/>
</g>
<g id="Layer_3">
	<path style="fill:#FBC531;" d="M-160,180.7c0,0.2,0.1,0.4,0.2,0.6l0.7,0.6c0.2,0.2,0.5,0.3,0.6,0.2c0.2,0,0.4-0.1,0.6-0.3
		c0.2-0.2,0.2-0.4,0.2-0.6s-0.1-0.4-0.3-0.6l-0.6-0.7c-0.2-0.2-0.4-0.2-0.6-0.2c-0.2,0-0.4,0.1-0.6,0.2
		C-160,180.3-160,180.5-160,180.7z"/>
	<path style="fill:#FBC531;" d="M-153.1,179.9c0,0.3,0.1,0.5,0.2,0.6c0.2,0.2,0.3,0.2,0.6,0.2c0.3,0,0.5-0.1,0.6-0.2c0.2-0.2,0.2-0.4,0.2-0.6
		v-2.1c0-0.2-0.1-0.4-0.2-0.6c-0.2-0.2-0.4-0.2-0.6-0.2c-0.2,0-0.4,0.1-0.6,0.2s-0.2,0.3-0.2,0.6V179.9z"/>
	<path style="fill:#FBC531;" d="M-147.5,182.2c0,0.3,0.1,0.5,0.2,0.6c0.2,0.2,0.4,0.2,0.6,0.2s0.4-0.1,0.6-0.2l1.4-1.4
		c0.2-0.2,0.2-0.4,0.2-0.6s-0.1-0.4-0.2-0.6c-0.2-0.2-0.4-0.2-0.6-0.2c-0.2,0-0.4,0.1-0.6,0.2l-1.5,1.4
		C-147.5,181.7-147.5,181.9-147.5,182.2z"/>
	<path style="fill:#FBC531;" d="M-145.3,187.7c0,0.2,0.1,0.4,0.3,0.6c0.2,0.2,0.4,0.2,0.6,0.2h2c0.2,0,0.4-0.1,0.6-0.2
		c0.2-0.1,0.2-0.3,0.2-0.6c0-0.2-0.1-0.4-0.2-0.6c-0.2-0.2-0.4-0.2-0.6-0.2h-2c-0.2,0-0.4,0.1-0.6,0.2
		C-145.2,187.3-145.3,187.5-145.3,187.7z"/>
	<path style="fill:#FBC531;" d="M-146.8,194c0,0.2,0.1,0.4,0.2,0.6l0.7,0.6c0.1,0.2,0.3,0.2,0.6,0.2c0.2,0,0.4-0.1,0.6-0.2
		c0.2-0.2,0.2-0.4,0.2-0.6s-0.1-0.4-0.2-0.6l-0.7-0.7c-0.2-0.2-0.3-0.2-0.6-0.2c-0.2,0-0.4,0.1-0.6,0.2
		C-146.7,193.6-146.8,193.8-146.8,194z"/>
</g>
<g>
	<path style="fill:#d4dbdb;" d="M-168.4,193c0,0.9,0.2,1.7,0.7,2.5c0.4,0.8,1,1.4,1.8,1.8c0.8,0.4,1.6,0.7,2.5,0.7h10.8c0.9,0,1.7-0.2,2.5-0.7
		s1.4-1,1.8-1.8c0.4-0.8,0.7-1.6,0.7-2.5c0-0.7-0.1-1.3-0.4-2c-1.4-3.7-5-2.9-5-2.9s-0.1-2.2-3-3.9c-0.8-0.4-1.7-0.7-2.7-0.7
		c-1.4,0-2.6,0.4-3.7,1.3c-1.1,0.9-1.8,2-2.1,3.4c-1.1,0.3-2,0.8-2.7,1.7S-168.4,191.9-168.4,193z"/>
</g>
</svg>
