<?xml version="1.0" encoding="utf-8"?>
<!-- Generator: Adobe Illustrator 19.1.0, SVG Export Plug-In . SVG Version: 6.00 Build 0)  -->
<svg version="1.1" id="Layer_1" xmlns="http://www.w3.org/2000/svg" xmlns:xlink="http://www.w3.org/1999/xlink" x="0px" y="0px"
	 viewBox="-79.6 90 21.2 21.3" style="enable-background:new -79.6 90 21.2 21.3;" xml:space="preserve">
<path d="M-79.6,100.6c0-0.2,0.1-0.5,0.2-0.6c0.2-0.2,0.4-0.2,0.6-0.2h2c0.2,0,0.4,0.1,0.6,0.2c0.2,0.2,0.2,0.4,0.2,0.6
	c0,0.2-0.1,0.4-0.2,0.6c-0.2,0.2-0.4,0.2-0.6,0.2h-2c-0.2,0-0.4-0.1-0.6-0.2C-79.5,101.1-79.6,100.9-79.6,100.6z M-76.8,107.6
	c0-0.2,0.1-0.4,0.2-0.6l1.5-1.4c0.2-0.2,0.4-0.2,0.6-0.2s0.4,0.1,0.6,0.2c0.2,0.2,0.2,0.3,0.2,0.6c0,0.2-0.1,0.5-0.2,0.6l-1.4,1.4
	c-0.4,0.3-0.8,0.3-1.2,0C-76.7,108-76.8,107.8-76.8,107.6z M-76.8,93.7c0-0.2,0.1-0.4,0.2-0.6c0.2-0.2,0.4-0.2,0.6-0.2
	c0.2,0,0.4,0.1,0.6,0.2l1.4,1.5c0.2,0.2,0.2,0.4,0.2,0.6s-0.1,0.4-0.2,0.6c-0.2,0.2-0.4,0.2-0.6,0.2s-0.4-0.1-0.6-0.2l-1.5-1.4
	C-76.7,94.2-76.8,93.9-76.8,93.7z M-74.2,100.6c0-0.9,0.2-1.8,0.7-2.6c0.5-0.8,1.1-1.4,1.9-1.9c0.8-0.5,1.7-0.7,2.6-0.7
	c0.7,0,1.4,0.1,2,0.4c0.6,0.3,1.2,0.7,1.7,1.1c0.5,0.5,0.8,1,1.1,1.7c0.3,0.6,0.4,1.3,0.4,2c0,0.9-0.2,1.8-0.7,2.6
	c-0.5,0.8-1.1,1.4-1.9,1.9c-0.8,0.5-1.7,0.7-2.6,0.7s-1.8-0.2-2.6-0.7c-0.8-0.5-1.4-1.1-1.9-1.9C-74,102.4-74.2,101.6-74.2,100.6z
	 M-72.5,100.6c0,1,0.3,1.8,1,2.5c0.7,0.7,1.5,1,2.5,1c1,0,1.8-0.4,2.5-1c0.7-0.7,1-1.5,1-2.5c0-1-0.3-1.8-1-2.5
	c-0.7-0.7-1.5-1-2.5-1c-1,0-1.8,0.3-2.5,1C-72.2,98.8-72.5,99.7-72.5,100.6z M-69.9,108.4c0-0.2,0.1-0.4,0.2-0.6
	c0.2-0.2,0.4-0.2,0.6-0.2c0.2,0,0.4,0.1,0.6,0.2c0.2,0.2,0.2,0.4,0.2,0.6v2c0,0.2-0.1,0.4-0.2,0.6c-0.2,0.2-0.4,0.2-0.6,0.2
	c-0.2,0-0.4-0.1-0.6-0.2c-0.2-0.2-0.2-0.4-0.2-0.6C-69.9,110.4-69.9,108.4-69.9,108.4z M-69.9,92.9v-2c0-0.2,0.1-0.4,0.2-0.6
	c0.2-0.2,0.4-0.3,0.6-0.3c0.2,0,0.4,0.1,0.6,0.2c0.2,0.2,0.2,0.4,0.2,0.6v2.1c0,0.2-0.1,0.4-0.2,0.6c-0.2,0.2-0.4,0.2-0.6,0.2
	c-0.2,0-0.4-0.1-0.6-0.2C-69.8,93.3-69.9,93.1-69.9,92.9z M-64.3,106.1c0-0.2,0.1-0.4,0.2-0.6c0.2-0.2,0.3-0.2,0.6-0.2
	c0.2,0,0.4,0.1,0.6,0.2l1.5,1.4c0.2,0.2,0.2,0.4,0.2,0.6c0,0.2-0.1,0.4-0.2,0.6c-0.4,0.3-0.8,0.3-1.2,0l-1.4-1.4
	C-64.3,106.6-64.3,106.3-64.3,106.1z M-64.3,95.2c0-0.2,0.1-0.5,0.2-0.6l1.4-1.5c0.2-0.2,0.4-0.2,0.6-0.2c0.2,0,0.4,0.1,0.6,0.2
	c0.2,0.2,0.2,0.4,0.2,0.6c0,0.2-0.1,0.5-0.2,0.6l-1.5,1.4c-0.2,0.2-0.4,0.2-0.6,0.2c-0.2,0-0.4-0.1-0.6-0.2
	C-64.3,95.6-64.3,95.4-64.3,95.2z M-62.1,100.6c0-0.2,0.1-0.4,0.2-0.6c0.2-0.2,0.3-0.2,0.6-0.2h2c0.2,0,0.4,0.1,0.6,0.3
	c0.2,0.2,0.3,0.4,0.3,0.6c0,0.2-0.1,0.4-0.3,0.6c-0.2,0.2-0.4,0.2-0.6,0.2h-2c-0.2,0-0.4-0.1-0.6-0.2
	C-62,101.1-62.1,100.9-62.1,100.6z"/>
</svg>
