<?xml version="1.0" encoding="utf-8"?>
<!-- Generator: Adobe Illustrator 19.1.0, SVG Export Plug-In . SVG Version: 6.00 Build 0)  -->
<svg version="1.1" id="Layer_1" xmlns="http://www.w3.org/2000/svg" xmlns:xlink="http://www.w3.org/1999/xlink" x="0px" y="0px"
	 viewBox="-81.4 93.4 24.8 17.5" style="enable-background:new -81.4 93.4 24.8 17.5;" xml:space="preserve">
<path d="M-81.4,107c0-0.2,0.1-0.4,0.2-0.6c0.2-0.2,0.4-0.2,0.6-0.2h18.7c0.2,0,0.5,0.1,0.6,0.2c0.2,0.2,0.2,0.4,0.2,0.6
	c0,0.2-0.1,0.4-0.2,0.6c-0.2,0.2-0.4,0.2-0.6,0.2h-18.7c-0.2,0-0.5-0.1-0.6-0.2C-81.3,107.5-81.4,107.3-81.4,107z M-78.8,103.9
	c0-0.2,0.1-0.4,0.3-0.6c0.2-0.2,0.4-0.2,0.6-0.2h18.7c0.2,0,0.4,0.1,0.6,0.2c0.2,0.2,0.2,0.3,0.2,0.6s-0.1,0.4-0.2,0.6
	c-0.2,0.2-0.4,0.2-0.6,0.2h-18.7c-0.2,0-0.4-0.1-0.6-0.2C-78.7,104.3-78.8,104.1-78.8,103.9z M-78.6,101.5c0,0.1,0.1,0.1,0.2,0.1
	h1.4c0.1,0,0.1-0.1,0.2-0.2c0.2-0.5,0.6-0.9,1.1-1.3c0.5-0.3,1-0.5,1.6-0.6l0.6-0.1c0.1,0,0.2-0.1,0.2-0.2l0.1-0.5
	c0.1-1.1,0.6-2,1.4-2.7c0.8-0.7,1.8-1.1,2.9-1.1c1.1,0,2,0.4,2.8,1.1c0.8,0.7,1.3,1.6,1.4,2.7l0.1,0.6c0,0.1,0.1,0.2,0.2,0.2h1.6
	c0.6,0,1.2,0.2,1.8,0.5c0.5,0.3,0.9,0.8,1.2,1.4c0.1,0.1,0.1,0.2,0.2,0.2h1.4c0.1,0,0.2-0.1,0.1-0.2c-0.3-1-0.9-1.9-1.7-2.5
	c-0.9-0.7-1.9-1-3-1h-0.3c-0.3-1.3-1-2.4-2.1-3.3c-1.1-0.8-2.3-1.3-3.6-1.3c-1.4,0-2.6,0.4-3.7,1.3s-1.8,2-2.1,3.4
	c-0.9,0.2-1.6,0.6-2.2,1.2S-78.4,100.6-78.6,101.5L-78.6,101.5C-78.6,101.4-78.6,101.5-78.6,101.5z M-77,110.1
	c0-0.2,0.1-0.4,0.3-0.6c0.1-0.2,0.3-0.2,0.6-0.2h18.7c0.2,0,0.4,0.1,0.6,0.2c0.2,0.2,0.2,0.3,0.2,0.6c0,0.2-0.1,0.4-0.2,0.6
	c-0.2,0.2-0.4,0.2-0.6,0.2h-18.7c-0.2,0-0.4-0.1-0.6-0.3C-76.9,110.5-77,110.3-77,110.1z"/>
</svg>
