<svg version="1.1" xmlns="http://www.w3.org/2000/svg" xmlns:xlink="http://www.w3.org/1999/xlink" x="0px" y="0px"
	 viewBox="-168.4 185.8 24.8 17.6" style="enable-background:new -168.4 185.8 24.8 17.6;" xml:space="preserve">
<g>
	<path style="fill:#d4dbdb;" d="M-168.4,199.5c0-0.2,0.1-0.4,0.2-0.6c0.2-0.2,0.4-0.2,0.6-0.2h18.7c0.2,0,0.5,0.1,0.6,0.2
		c0.2,0.2,0.2,0.4,0.2,0.6c0,0.2-0.1,0.4-0.2,0.6c-0.2,0.2-0.4,0.2-0.6,0.2h-18.7c-0.2,0-0.5-0.1-0.6-0.2S-168.4,199.8-168.4,199.5z
		 M-165.8,196.4c0-0.2,0.1-0.4,0.3-0.6c0.2-0.2,0.4-0.2,0.6-0.2h18.7c0.2,0,0.4,0.1,0.6,0.2c0.2,0.2,0.2,0.3,0.2,0.6
		s-0.1,0.4-0.2,0.6c-0.2,0.2-0.4,0.2-0.6,0.2h-18.7c-0.2,0-0.4-0.1-0.6-0.2C-165.7,196.8-165.8,196.6-165.8,196.4z M-165.6,194
		c0,0.1,0.1,0.1,0.2,0.1h20.2c0.1,0,0.2-0.1,0.1-0.2c-0.3-1-0.9-1.9-1.7-2.5c-0.9-0.7-1.9-1-3-1h-0.3c-0.3-1.3-1-2.4-2.1-3.3
		c-1.1-0.8-2.3-1.3-3.6-1.3c-1.4,0-2.6,0.4-3.7,1.3s-1.8,2-2.1,3.4c-0.9,0.2-1.6,0.6-2.2,1.2C-164.4,192.3-165.4,193.1-165.6,194
		L-165.6,194C-165.6,193.9-165.6,194-165.6,194z M-164,202.6c0-0.2,0.1-0.4,0.3-0.6c0.1-0.2,0.3-0.2,0.6-0.2h18.7
		c0.2,0,0.4,0.1,0.6,0.2c0.2,0.2,0.2,0.3,0.2,0.6c0,0.2-0.1,0.4-0.2,0.6c-0.2,0.2-0.4,0.2-0.6,0.2h-18.7c-0.2,0-0.4-0.1-0.6-0.3
		C-163.9,203-164,202.8-164,202.6z"/>
</g>
<g>
	<path style="fill:#d4dbdb;" d="M-168.4,199.5c0-0.2,0.1-0.4,0.2-0.6c0.2-0.2,0.4-0.2,0.6-0.2h18.7c0.2,0,0.5,0.1,0.6,0.2
		c0.2,0.2,0.2,0.4,0.2,0.6c0,0.2-0.1,0.4-0.2,0.6c-0.2,0.2-0.4,0.2-0.6,0.2h-18.7c-0.2,0-0.5-0.1-0.6-0.2S-168.4,199.8-168.4,199.5z
		"/>
	<path style="fill:#d4dbdb;" d="M-165.8,196.4c0-0.2,0.1-0.4,0.3-0.6c0.2-0.2,0.4-0.2,0.6-0.2h18.7c0.2,0,0.4,0.1,0.6,0.2
		c0.2,0.2,0.2,0.3,0.2,0.6s-0.1,0.4-0.2,0.6c-0.2,0.2-0.4,0.2-0.6,0.2h-18.7c-0.2,0-0.4-0.1-0.6-0.2
		C-165.7,196.8-165.8,196.6-165.8,196.4z"/>
	<path style="fill:#d4dbdb;" d="M-164,202.6c0-0.2,0.1-0.4,0.3-0.6c0.1-0.2,0.3-0.2,0.6-0.2h18.7c0.2,0,0.4,0.1,0.6,0.2
		c0.2,0.2,0.2,0.3,0.2,0.6c0,0.2-0.1,0.4-0.2,0.6c-0.2,0.2-0.4,0.2-0.6,0.2h-18.7c-0.2,0-0.4-0.1-0.6-0.3
		C-163.9,203-164,202.8-164,202.6z"/>
</g>
</svg>
