<?xml version="1.0" encoding="utf-8"?>
<!-- Generator: Adobe Illustrator 19.1.0, SVG Export Plug-In . SVG Version: 6.00 Build 0)  -->
<svg version="1.1" id="Layer_1" xmlns="http://www.w3.org/2000/svg" xmlns:xlink="http://www.w3.org/1999/xlink" x="0px" y="0px"
	 viewBox="-79.4 93.4 20.7 20.3" style="enable-background:new -79.4 93.4 20.7 20.3;" xml:space="preserve">
<path d="M-79.4,102.9c0,1.3,0.5,2.5,1.4,3.4s2.1,1.5,3.4,1.5c0.1,0,0.2-0.1,0.2-0.2v-1.3c0-0.1-0.1-0.2-0.2-0.2
	c-0.9,0-1.6-0.4-2.2-1s-0.9-1.4-0.9-2.3c0-0.8,0.3-1.5,0.8-2.2c0.6-0.6,1.3-1,2.1-1.1l0.5,0c0.1,0,0.2-0.1,0.2-0.2l0.1-0.5
	c0.1-1.1,0.6-2,1.4-2.7c0.8-0.7,1.8-1.1,2.8-1.1c1.1,0,2,0.4,2.8,1.1c0.8,0.7,1.3,1.6,1.4,2.7l0.1,0.6c0,0.1,0.1,0.2,0.2,0.2h1.6
	c0.9,0,1.7,0.3,2.3,1c0.6,0.6,1,1.4,1,2.3c0,0.9-0.3,1.6-0.9,2.3c-0.6,0.6-1.3,1-2.2,1c-0.1,0-0.2,0.1-0.2,0.2v1.3
	c0,0.1,0.1,0.2,0.2,0.2c0.9,0,1.7-0.3,2.4-0.7c0.7-0.5,1.3-1.1,1.7-1.8c0.4-0.8,0.6-1.6,0.6-2.4c0-0.9-0.2-1.7-0.7-2.5
	c-0.4-0.8-1-1.3-1.8-1.8c-0.8-0.4-1.6-0.7-2.5-0.7h-0.3c-0.3-1.3-1-2.4-2.1-3.3s-2.3-1.3-3.7-1.3c-1.4,0-2.7,0.4-3.8,1.3
	c-1.1,0.9-1.8,2-2.1,3.4c-1.1,0.3-2,0.8-2.7,1.7C-79,100.7-79.4,101.8-79.4,102.9z M-73.9,110.1c0.1,0.2,0.2,0.4,0.5,0.5
	c0.2,0.1,0.4,0.1,0.6,0c0.2-0.1,0.4-0.2,0.5-0.4c0.1-0.2,0.1-0.4,0-0.6c-0.1-0.2-0.2-0.4-0.4-0.4c-0.2-0.1-0.4-0.1-0.6,0
	c-0.2,0.1-0.4,0.2-0.5,0.5C-74,109.7-74,109.9-73.9,110.1z M-73.3,107.3c0,0.2,0,0.3,0.2,0.5c0.1,0.2,0.3,0.2,0.5,0.3
	c0.2,0.1,0.4,0.1,0.6,0c0.2-0.1,0.4-0.3,0.4-0.6l0.9-3.4c0.1-0.2,0-0.5-0.1-0.7s-0.3-0.3-0.5-0.4c-0.1,0-0.2,0-0.2,0
	c-0.2,0-0.3,0-0.5,0.1c-0.2,0.1-0.3,0.2-0.3,0.4l-0.9,3.4C-73.3,107.2-73.3,107.2-73.3,107.3z M-71.4,112.9c0,0.1,0,0.2,0.1,0.3
	c0.1,0.2,0.2,0.4,0.4,0.4c0.1,0.1,0.2,0.1,0.3,0.1c0.1,0,0.2,0,0.3-0.1c0.2-0.1,0.4-0.2,0.5-0.4c0.1-0.2,0.1-0.4,0-0.7
	c-0.1-0.2-0.2-0.4-0.5-0.5c-0.2-0.1-0.4-0.1-0.6,0c-0.2,0.1-0.3,0.2-0.4,0.4C-71.4,112.6-71.4,112.7-71.4,112.9z M-70.7,110.3
	c0,0.4,0.2,0.6,0.6,0.7c0.1,0,0.2,0,0.2,0c0.2,0,0.3,0,0.4-0.1c0.2-0.1,0.4-0.3,0.4-0.6l1.7-6.3c0.1-0.2,0-0.5-0.1-0.7
	c-0.1-0.2-0.3-0.3-0.5-0.4c-0.1,0-0.2,0-0.3,0c-0.2,0-0.3,0.1-0.5,0.2c-0.2,0.1-0.3,0.2-0.3,0.4l-1.7,6.3
	C-70.7,110.1-70.7,110.2-70.7,110.3z M-67.3,109.8c0,0.1,0,0.2,0.1,0.3c0.1,0.2,0.2,0.3,0.4,0.4c0.1,0,0.2,0.1,0.3,0.1
	c0.1,0,0.2,0,0.3-0.1c0.2-0.1,0.4-0.2,0.5-0.4c0.1-0.2,0.1-0.4,0-0.6c-0.1-0.2-0.2-0.3-0.4-0.4c-0.2-0.1-0.4-0.1-0.6,0
	c-0.2,0.1-0.4,0.2-0.5,0.5C-67.2,109.6-67.3,109.7-67.3,109.8z M-66.5,107.2c0,0.1,0,0.3,0.2,0.4c0.1,0.2,0.3,0.3,0.5,0.3
	c0.2,0,0.2,0,0.3,0c0.1,0,0.2,0,0.4-0.1c0.2-0.1,0.3-0.3,0.4-0.5l0.9-3.3c0-0.2,0-0.3,0-0.3c0-0.2,0-0.3-0.1-0.5
	c-0.1-0.2-0.2-0.2-0.5-0.3c-0.1,0-0.2,0-0.3,0c-0.2,0-0.3,0-0.5,0.2c-0.2,0.1-0.2,0.2-0.3,0.4l-0.9,3.4L-66.5,107.2z"/>
</svg>
