<?xml version="1.0" encoding="utf-8"?>
<!-- Generator: Adobe Illustrator 19.1.0, SVG Export Plug-In . SVG Version: 6.00 Build 0)  -->
<svg version="1.1" id="Layer_1" xmlns="http://www.w3.org/2000/svg" xmlns:xlink="http://www.w3.org/1999/xlink" x="0px" y="0px"
	 viewBox="-79.9 91.4 21.7 16.5" style="enable-background:new -79.9 91.4 21.7 16.5;" xml:space="preserve">
<path d="M-79.9,102.9c0-1.2,0.3-2.2,1.1-3.1s1.6-1.5,2.7-1.7c0.2-1,0.7-1.9,1.4-2.7c0.7-0.8,1.6-1.3,2.5-1.7
	c0.6-0.2,1.3-0.3,1.9-0.3c0.8,0,1.6,0.2,2.4,0.5c0.3-0.5,0.6-0.9,1-1.2c0.4-0.3,0.8-0.6,1.2-0.8s0.8-0.3,1.2-0.4
	c0.4-0.1,0.8-0.1,1.1-0.1c0.4,0,0.8,0.1,1.2,0.2l0.8,0.2c0.1,0.1,0.2,0.1,0.1,0.2l-0.1,0.6c-0.1,0.3-0.1,0.6-0.1,0.9
	c0,0.3,0,0.6,0.2,1c0.1,0.3,0.2,0.6,0.4,0.9c0.2,0.3,0.5,0.6,0.8,0.8s0.7,0.4,1.2,0.6l0.6,0.2c0.1,0,0.2,0.1,0.2,0.2c0,0,0,0,0,0.1
	l-0.2,0.7c-0.3,1.1-0.8,1.9-1.5,2.6c0.4,0.7,0.6,1.4,0.6,2.2c0,0.1,0,0.1,0,0.2c0,0.9-0.2,1.7-0.7,2.5c-0.4,0.8-1,1.4-1.8,1.8
	c-0.8,0.4-1.6,0.7-2.5,0.7h-10.8c-0.9,0-1.7-0.2-2.5-0.7c-0.8-0.5-1.3-1.1-1.8-1.8C-79.6,104.6-79.9,103.8-79.9,102.9z M-78.2,102.9
	c0,0.9,0.3,1.7,1,2.3s1.4,1,2.3,1h10.8c0.9,0,1.7-0.3,2.3-1s1-1.4,1-2.3c0-0.9-0.3-1.6-1-2.3c-0.6-0.6-1.4-0.9-2.3-0.9h-1.8
	l-0.1-0.8c-0.1-1-0.5-1.9-1.3-2.6c-0.7-0.7-1.6-1.1-2.6-1.2c0,0-0.1,0-0.1,0s-0.1,0-0.2,0c-0.5,0-1,0.1-1.5,0.3v0
	c-0.7,0.3-1.3,0.7-1.8,1.4c-0.5,0.6-0.8,1.3-0.9,2.2l-0.1,0.7l-0.7,0c-0.8,0.1-1.5,0.4-2.1,1.1C-77.9,101.4-78.2,102.1-78.2,102.9z
	 M-66.4,94.8c1.1,0.9,1.7,2,2,3.2h0.3c1.2,0,2.3,0.4,3.2,1.2c0.3-0.3,0.6-0.7,0.8-1.1c-0.9-0.4-1.6-1.1-2.2-2
	c-0.5-0.9-0.8-1.8-0.8-2.8v-0.2c0,0-0.1,0-0.2,0c-0.6,0-1.2,0.1-1.7,0.4C-65.6,93.8-66.1,94.2-66.4,94.8z"/>
</svg>
