<svg version="1.1" xmlns="http://www.w3.org/2000/svg" xmlns:xlink="http://www.w3.org/1999/xlink" x="0px" y="0px"
	 viewBox="-168.4 179 25.1 19" style="enable-background:new -168.4 179 25.1 19;" xml:space="preserve">
<g>
	<path style="fill:#E1B12C;" d="M-143.4,185.4c-2.1,0-3.8-1.8-3.8-4.1c0-0.6,0.1-1.2,0.3-1.7c-0.8-0.4-1.7-0.6-2.6-0.6c-3.4,0-6.2,2.7-6.2,6.1
		c0,3.4,2.8,6.1,6.2,6.1c3.3,0,6-2.6,6.2-5.9C-143.3,185.4-143.4,185.4-143.4,185.4z"/>
</g>
<g>
	<path style="fill:#DCDDE1;" d="M-168.4,192.2c0,1,0.2,2,0.8,2.9c0.5,0.9,1.2,1.6,2.1,2.1c0.9,0.5,1.8,0.8,2.9,0.8h12.4c1,0,2-0.2,2.9-0.8
		c0.9-0.6,1.6-1.2,2.1-2.1c0.5-0.9,0.8-1.8,0.8-2.9c0-0.8-0.1-1.5-0.5-2.3c-1.6-4.2-5.8-3.3-5.8-3.3s-0.1-2.6-3.5-4.5
		c-0.9-0.5-2-0.8-3.1-0.8c-1.6,0-3,0.5-4.3,1.5s-2.1,2.3-2.4,3.9c-1.3,0.3-2.3,0.9-3.1,2S-168.4,191-168.4,192.2z"/>
</g>
</svg>
