<?xml version="1.0" encoding="utf-8"?>
<!-- Generator: Adobe Illustrator 19.1.0, SVG Export Plug-In . SVG Version: 6.00 Build 0)  -->
<svg version="1.1" id="Layer_1" xmlns="http://www.w3.org/2000/svg" xmlns:xlink="http://www.w3.org/1999/xlink" x="0px" y="0px"
	 viewBox="-76.1 93.4 14.1 14.2" style="enable-background:new -76.1 93.4 14.1 14.2;" xml:space="preserve">
<path d="M-76.1,100.5c0-1,0.2-1.9,0.6-2.8c0.4-0.9,0.9-1.6,1.5-2.3c0.6-0.6,1.4-1.1,2.3-1.5c0.9-0.4,1.8-0.6,2.8-0.6h1.1
	c0.2,0,0.2,0.1,0.2,0.3l0,0.9c0,1.3,0.5,2.4,1.4,3.2s1.9,1.4,3.2,1.4l0.8,0.1c0.2,0,0.2,0.1,0.2,0.2v1c0,1.3-0.3,2.5-0.9,3.6
	c-0.6,1.1-1.5,2-2.6,2.6c-1.1,0.6-2.3,0.9-3.5,0.9c-1,0-1.9-0.2-2.8-0.6c-0.9-0.4-1.6-0.9-2.3-1.5c-0.6-0.6-1.1-1.4-1.5-2.3
	C-75.9,102.4-76.1,101.4-76.1,100.5z M-74.3,100.5c0,0.8,0.1,1.5,0.4,2.2c0.3,0.7,0.7,1.2,1.2,1.7c0.5,0.5,1,0.8,1.7,1.1
	c0.6,0.3,1.3,0.4,1.9,0.4c0.6,0,1.2-0.1,1.8-0.3c0.6-0.2,1.1-0.5,1.7-1c0.5-0.4,0.9-0.9,1.3-1.6s0.6-1.3,0.7-2.1
	c-1.6-0.3-2.9-1-3.9-2.1c-1-1.1-1.6-2.3-1.7-3.7c-1,0.1-1.8,0.3-2.6,0.9c-0.8,0.5-1.4,1.2-1.8,2S-74.3,99.6-74.3,100.5z"/>
</svg>
