<?xml version="1.0" encoding="utf-8"?>
<!-- Generator: Adobe Illustrator 19.1.0, SVG Export Plug-In . SVG Version: 6.00 Build 0)  -->
<svg version="1.1" id="Layer_1" xmlns="http://www.w3.org/2000/svg" xmlns:xlink="http://www.w3.org/1999/xlink" x="0px" y="0px"
	 viewBox="-79.4 93.4 20.7 20.1" style="enable-background:new -79.4 93.4 20.7 20.1;" xml:space="preserve">
<path d="M-79.4,102.9c0-1.2,0.4-2.2,1.1-3.1c0.7-0.9,1.6-1.5,2.7-1.7c0.3-1.4,1-2.5,2.1-3.4c1.1-0.9,2.3-1.3,3.8-1.3
	c1.4,0,2.6,0.4,3.7,1.3s1.8,2,2.1,3.3h0.3c0.9,0,1.7,0.2,2.5,0.7c0.8,0.4,1.4,1,1.8,1.8c0.4,0.8,0.7,1.6,0.7,2.5
	c0,0.9-0.2,1.7-0.6,2.4c-0.4,0.8-1,1.4-1.7,1.8s-1.5,0.7-2.4,0.7c-0.1,0-0.2-0.1-0.2-0.2v-1.3c0-0.1,0.1-0.2,0.2-0.2
	c0.8,0,1.6-0.4,2.2-1c0.6-0.6,0.9-1.4,0.9-2.3c0-0.9-0.3-1.6-1-2.3c-0.6-0.6-1.4-1-2.3-1h-1.6c-0.1,0-0.2-0.1-0.2-0.2l-0.1-0.6
	c-0.1-1.1-0.6-2-1.4-2.7c-0.8-0.7-1.8-1.1-2.8-1.1c-1.1,0-2.1,0.4-2.8,1.1c-0.8,0.7-1.3,1.6-1.4,2.7l-0.1,0.5c0,0.1-0.1,0.2-0.2,0.2
	l-0.5,0c-0.8,0.1-1.5,0.5-2.1,1.1s-0.8,1.3-0.8,2.2c0,0.9,0.3,1.6,0.9,2.3s1.3,1,2.2,1c0.1,0,0.2,0.1,0.2,0.2v1.3
	c0,0.1-0.1,0.2-0.2,0.2c-1.3-0.1-2.5-0.6-3.4-1.5S-79.4,104.2-79.4,102.9z M-74,109.6c0,0,0-0.1,0-0.2l1.6-5.8
	c0.1-0.2,0.2-0.3,0.3-0.4c0.2-0.1,0.3-0.2,0.5-0.2c0.1,0,0.1,0,0.2,0c0.2,0,0.4,0.2,0.5,0.4c0.1,0.2,0.1,0.4,0.1,0.7l-1.6,5.7
	c-0.1,0.4-0.4,0.6-0.8,0.6c0,0-0.1,0-0.1,0c-0.1,0-0.1,0-0.1,0c-0.2-0.1-0.4-0.2-0.5-0.3C-74,109.9-74,109.8-74,109.6z M-71.4,112.4
	l2.4-8.8c0-0.2,0.1-0.3,0.3-0.4c0.2-0.1,0.3-0.1,0.5-0.1c0.1,0,0.2,0,0.3,0c0.2,0.1,0.4,0.2,0.5,0.4s0.1,0.4,0.1,0.6l-2.4,8.8
	c0,0.2-0.1,0.3-0.3,0.4c-0.2,0.1-0.3,0.2-0.5,0.2c-0.1,0-0.2,0-0.2,0c-0.2-0.1-0.4-0.2-0.5-0.4C-71.4,112.9-71.5,112.7-71.4,112.4z
	 M-67.3,109.6c0,0,0-0.1,0-0.2l1.6-5.8c0.1-0.2,0.2-0.3,0.3-0.4c0.2-0.1,0.3-0.2,0.5-0.2c0.1,0,0.2,0,0.3,0c0.2,0.1,0.4,0.2,0.5,0.3
	s0.1,0.3,0.1,0.5c0,0,0,0.1,0,0.1c0,0.1,0,0.1,0,0.1l-1.6,5.7c0,0.2-0.1,0.3-0.3,0.5s-0.3,0.2-0.5,0.2l-0.2,0
	c-0.2-0.1-0.3-0.2-0.5-0.3C-67.2,109.9-67.3,109.8-67.3,109.6z"/>
</svg>
