<svg version="1.1" xmlns="http://www.w3.org/2000/svg" xmlns:xlink="http://www.w3.org/1999/xlink" x="0px" y="0px"
	 viewBox="-168.4 184.1 20.6 20.3" style="enable-background:new -168.4 184.1 20.6 20.3;" xml:space="preserve">
<line style="fill:none;stroke:#00A8FF;stroke-width:1.75;stroke-linecap:round;stroke-miterlimit:10;" x1="-160.4" y1="194.1" x2="-162.5" y2="200.6"/>
<line style="fill:none;stroke:#00A8FF;stroke-width:1.75;stroke-linecap:round;stroke-miterlimit:10;" x1="-153.6" y1="194.1" x2="-155.3" y2="200.6"/>
<line style="fill:none;stroke:#00A8FF;stroke-width:1.75;stroke-linecap:round;stroke-miterlimit:10;" x1="-157" y1="194.3" x2="-159.5" y2="203.5"/>
<path style="fill:#d4dbdb;" d="M-168.4,192.5c0,1.2,0.5,2.2,1.4,3c0.9,0.8,2.1,1.3,3.4,1.3c0.1,0,11,0.1,11.1,0.1c0.9,0,1.7-0.3,2.4-0.6
	c0.7-0.4,1.3-1,1.7-1.6c0.4-0.7,0.6-1.4,0.6-2.1c0-0.8-0.2-1.5-0.7-2.2c-0.4-0.7-1-1.2-1.8-1.6c-0.8-0.4-1.6-0.6-2.5-0.6h-0.3
	c-0.3-1.2-1-2.1-2.1-2.9c-1.1-0.8-2.3-1.2-3.7-1.2s-2.7,0.4-3.8,1.2s-1.8,1.8-2.1,3c-1.1,0.3-2,0.7-2.7,1.5
	C-168,190.6-168.4,191.5-168.4,192.5z"/>
</svg>
