<?xml version="1.0" encoding="utf-8"?>
<!-- Generator: Adobe Illustrator 19.1.0, SVG Export Plug-In . SVG Version: 6.00 Build 0)  -->
<svg version="1.1" id="Layer_1" xmlns="http://www.w3.org/2000/svg" xmlns:xlink="http://www.w3.org/1999/xlink" x="0px" y="0px"
	 viewBox="-79.9 93.4 20.8 20.6" style="enable-background:new -79.9 93.4 20.8 20.6;" xml:space="preserve">
<path d="M-79.9,102.9c0-1.2,0.4-2.2,1.1-3.1s1.6-1.5,2.7-1.7c0.3-1.4,1-2.5,2.1-3.4c1.1-0.9,2.4-1.3,3.8-1.3c0.8,0,1.5,0.1,2.2,0.4
	c0,0,0,0,0,0c0.8,0.3,1.6,0.8,2.2,1.6h0c0.7,0.7,1.1,1.6,1.4,2.6h0.3c1.1,0,2,0.3,2.8,0.9v0c0.5,0.4,1,0.8,1.3,1.3s0.6,1.1,0.7,1.7
	c0,0.2,0.1,0.4,0.1,0.5v0.1c0,0,0,0.1,0,0.2s0,0.2,0,0.2v0c0,0.9-0.2,1.7-0.6,2.4c-0.4,0.8-1,1.4-1.7,1.8c-0.7,0.4-1.5,0.7-2.4,0.7
	c-0.1,0-0.2-0.1-0.2-0.2v-1.3c0-0.1,0.1-0.2,0.2-0.2c0.9,0,1.6-0.4,2.2-1c0.6-0.6,0.9-1.4,0.9-2.3c0-0.9-0.3-1.7-1-2.3
	c-0.6-0.6-1.4-1-2.3-1h-1.6c-0.1,0-0.2-0.1-0.2-0.2l-0.1-0.6c-0.1-1-0.5-1.9-1.3-2.6c0,0,0,0,0,0c0,0,0,0,0,0c0,0,0,0,0,0
	c0,0,0,0,0,0c-0.7-0.7-1.6-1-2.6-1.1c-0.1,0-0.2,0-0.3,0c-1.1,0-2.1,0.4-2.9,1.1c-0.8,0.7-1.3,1.6-1.4,2.7l-0.1,0.6
	c0,0.1-0.1,0.1-0.2,0.1l-0.5,0c-0.8,0.1-1.6,0.5-2.1,1.1c-0.6,0.6-0.8,1.3-0.8,2.2v0h0c0,0.5,0.1,0.9,0.3,1.3
	c0.2,0.4,0.5,0.8,0.8,1.1c0.2,0.2,0.4,0.3,0.7,0.5v0c0.4,0.2,0.8,0.3,1.2,0.3c0.1,0,0.2,0.1,0.2,0.2v1.3c0,0.1-0.1,0.2-0.2,0.2
	c-0.5,0-1-0.1-1.5-0.3v0c-0.8-0.3-1.5-0.8-2.1-1.4c-0.6-0.7-0.9-1.4-1.1-2.3v0c0,0,0,0,0,0C-79.9,103.6-79.9,103.3-79.9,102.9z
	 M-74.4,110.1c0,0,0-0.1,0-0.1c0,0,0-0.1,0-0.1l0.1-0.6c0.1-0.2,0.2-0.4,0.4-0.5s0.4-0.1,0.7-0.1c0.2,0.1,0.4,0.2,0.5,0.4
	c0.1,0.2,0.1,0.4,0.1,0.6l-0.1,0.6c-0.1,0.4-0.4,0.7-0.8,0.7c0,0-0.1,0-0.1,0c-0.1,0-0.1,0-0.1,0c-0.2-0.1-0.4-0.2-0.5-0.3
	C-74.4,110.4-74.4,110.3-74.4,110.1z M-73.7,107.2c0-0.2,0.1-0.4,0.2-0.6c0.1-0.2,0.3-0.2,0.6-0.2c0.2,0,0.4,0.1,0.6,0.2
	c0.2,0.2,0.2,0.4,0.2,0.6c0,0.2-0.1,0.4-0.2,0.6c-0.2,0.2-0.3,0.2-0.6,0.2c-0.2,0-0.4-0.1-0.6-0.2
	C-73.6,107.6-73.7,107.4-73.7,107.2z M-72,113.2c0,0,0-0.1,0-0.2l0.1-0.6c0.1-0.2,0.2-0.4,0.4-0.5c0.2-0.1,0.4-0.1,0.6-0.1
	c0.2,0,0.4,0.2,0.5,0.4c0.1,0.2,0.1,0.4,0.1,0.7l-0.1,0.6c-0.1,0.4-0.4,0.6-0.8,0.6c-0.1,0-0.2,0-0.2,0c-0.2-0.1-0.4-0.2-0.5-0.3
	C-72,113.5-72,113.3-72,113.2z M-71.2,110.3c0-0.2,0.1-0.4,0.2-0.6c0.2-0.2,0.3-0.2,0.6-0.2s0.4,0.1,0.6,0.2
	c0.2,0.2,0.2,0.3,0.2,0.6c0,0.2-0.1,0.4-0.2,0.6c-0.2,0.2-0.4,0.2-0.6,0.2c-0.2,0-0.4-0.1-0.6-0.2
	C-71.2,110.7-71.2,110.5-71.2,110.3z M-70.6,108c0-0.1,0-0.2,0-0.3l0.2-0.9c0.1-0.2,0.2-0.4,0.4-0.5c0.2-0.1,0.4-0.2,0.6-0.1
	c0.2,0.1,0.4,0.2,0.5,0.4c0.1,0.2,0.1,0.4,0.1,0.6l-0.3,0.9c-0.1,0.3-0.2,0.5-0.4,0.6s-0.4,0.1-0.6,0.1c-0.2,0-0.3-0.1-0.4-0.3
	C-70.6,108.3-70.6,108.1-70.6,108z M-67.9,110.1c0,0,0-0.1,0-0.1c0-0.1,0-0.1,0-0.1l0.1-0.6c0.1-0.2,0.2-0.4,0.4-0.5
	s0.4-0.1,0.7-0.1c0.2,0.1,0.4,0.2,0.5,0.4c0.1,0.2,0.1,0.4,0.1,0.6l-0.1,0.6c-0.1,0.4-0.4,0.7-0.8,0.7c0,0-0.1,0-0.1,0
	c-0.1,0-0.1,0-0.1,0c-0.2-0.1-0.3-0.2-0.5-0.3C-67.8,110.5-67.9,110.3-67.9,110.1z M-67.1,107.2c0-0.2,0.1-0.4,0.2-0.6
	c0.2-0.2,0.3-0.2,0.6-0.2c0.2,0,0.4,0.1,0.6,0.2c0.2,0.2,0.2,0.3,0.2,0.6c0,0.2-0.1,0.4-0.2,0.6c-0.1,0.2-0.3,0.2-0.6,0.2
	c-0.2,0-0.4-0.1-0.6-0.2C-67,107.6-67.1,107.4-67.1,107.2z"/>
</svg>
