<svg version="1.1" xmlns="http://www.w3.org/2000/svg" xmlns:xlink="http://www.w3.org/1999/xlink" x="0px" y="0px"
	 viewBox="-257.4 274.8 20.6 20.3" style="enable-background:new -257.4 274.8 20.6 20.3;" xml:space="preserve">
<circle style="fill:#f5f6fa;" cx="-251.1" cy="291.3" r="0.9"/>
<circle style="fill:#f5f6fa;" cx="-248.7" cy="294.2" r="0.9"/>
<circle style="fill:#f5f6fa;" cx="-244.5" cy="291.3" r="0.9"/>
<line style="fill:none;stroke:#f5f6fa;stroke-width:1.75;stroke-linecap:round;stroke-miterlimit:10;" x1="-249.4" y1="284.8" x2="-250.5" y2="288.9"/>
<line style="fill:none;stroke:#f5f6fa;stroke-width:1.75;stroke-linecap:round;stroke-miterlimit:10;" x1="-242.6" y1="284.8" x2="-243.7" y2="288.9"/>
<line style="fill:none;stroke:#f5f6fa;stroke-width:1.75;stroke-linecap:round;stroke-miterlimit:10;" x1="-246.2" y1="285" x2="-248" y2="292.1"/>
<path style="fill:#d4dbdb;" d="M-257.4,282.9c0,1.1,0.5,2.1,1.4,2.9s2.1,1.3,3.4,1.3c0.1,0,11,0.1,11.1,0.1c0.9,0,1.7-0.3,2.4-0.6
	c0.7-0.4,1.3-0.9,1.7-1.5c0.4-0.7,0.6-1.4,0.6-2c0-0.8-0.2-1.4-0.7-2.1c-0.4-0.7-1-1.1-1.8-1.5c-0.8-0.3-1.6-0.6-2.5-0.6h-0.3
	c-0.3-1.1-1-2-2.1-2.8c-1.1-0.8-2.3-1.1-3.7-1.1s-2.7,0.3-3.8,1.1c-1.1,0.8-1.8,1.7-2.1,2.9c-1.1,0.3-2,0.7-2.7,1.4
	C-257,281-257.4,281.9-257.4,282.9z"/>
</svg>
