<svg version="1.1" xmlns="http://www.w3.org/2000/svg" xmlns:xlink="http://www.w3.org/1999/xlink" x="0px" y="0px"
	 viewBox="-257.4 274.8 20.6 20.3" style="enable-background:new -257.4 274.8 20.6 20.3;" xml:space="preserve">
<circle style="fill:#f5f6fa;" cx="-251.5" cy="288.6" r="0.9"/>
<circle style="fill:#f5f6fa;" cx="-246.7" cy="287.7" r="0.9"/>
<circle style="fill:#f5f6fa;" cx="-246.7" cy="291" r="0.9"/>
<circle style="fill:#f5f6fa;" cx="-251.4" cy="292.7" r="0.9"/>
<circle style="fill:#f5f6fa;" cx="-242.1" cy="288.6" r="0.9"/>
<circle style="fill:#f5f6fa;" cx="-242.1" cy="292.7" r="0.9"/>
<circle style="fill:#f5f6fa;" cx="-246.7" cy="294.1" r="0.9"/>
<path style="fill:#DCDDE1;" d="M-257.4,282.9c0,1.1,0.5,2.1,1.4,2.9s2.1,1.3,3.4,1.3c0.1,0,11,0.1,11.1,0.1c0.9,0,1.7-0.3,2.4-0.6
	c0.7-0.4,1.3-0.9,1.7-1.5c0.4-0.7,0.6-1.4,0.6-2c0-0.8-0.2-1.4-0.7-2.1c-0.4-0.7-1-1.1-1.8-1.5c-0.8-0.3-1.6-0.6-2.5-0.6h-0.3
	c-0.3-1.1-1-2-2.1-2.8c-1.1-0.8-2.3-1.1-3.7-1.1s-2.7,0.3-3.8,1.1c-1.1,0.8-1.8,1.7-2.1,2.9c-1.1,0.3-2,0.7-2.7,1.4
	C-257,281-257.4,281.9-257.4,282.9z"/>
</svg>
