<?xml version="1.0" encoding="utf-8"?>
<!-- Generator: Adobe Illustrator 19.1.0, SVG Export Plug-In . SVG Version: 6.00 Build 0)  -->
<svg version="1.1" id="Layer_1" xmlns="http://www.w3.org/2000/svg" xmlns:xlink="http://www.w3.org/1999/xlink" x="0px" y="0px"
	 viewBox="-79.4 93.4 20.7 20" style="enable-background:new -79.4 93.4 20.7 20;" xml:space="preserve">
<path d="M-79.4,103c0-1.2,0.3-2.2,1.1-3.1s1.6-1.5,2.7-1.8c0.3-1.4,1-2.5,2.1-3.4c1.1-0.9,2.3-1.3,3.8-1.3c1.4,0,2.6,0.4,3.7,1.3
	c1.1,0.8,1.8,2,2.1,3.3h0.3c0.9,0,1.7,0.2,2.5,0.7c0.8,0.4,1.4,1,1.8,1.8c0.4,0.8,0.7,1.6,0.7,2.5c0,1.3-0.5,2.5-1.4,3.4
	c-0.9,1-2,1.5-3.4,1.5c-0.1,0-0.2-0.1-0.2-0.2v-1.3c0-0.1,0.1-0.2,0.2-0.2c0.8,0,1.6-0.4,2.2-1c0.6-0.6,0.9-1.4,0.9-2.2
	c0-0.9-0.3-1.7-1-2.3c-0.7-0.7-1.4-1-2.3-1h-1.6c-0.1,0-0.2-0.1-0.2-0.2l-0.1-0.6c-0.1-1.1-0.6-2-1.4-2.7c-0.8-0.7-1.8-1.1-2.9-1.1
	c-1.1,0-2,0.4-2.9,1.1c-0.8,0.7-1.3,1.7-1.4,2.8l-0.1,0.5c0,0.1-0.1,0.2-0.2,0.2l-0.5,0.1c-0.8,0.1-1.5,0.4-2.1,1
	c-0.6,0.6-0.8,1.3-0.8,2.2c0,0.9,0.3,1.6,0.9,2.2c0.6,0.6,1.3,1,2.2,1c0.1,0,0.2,0.1,0.2,0.2v1.3c0,0.1-0.1,0.2-0.2,0.2
	c-1.3,0-2.5-0.5-3.4-1.5C-78.9,105.4-79.4,104.3-79.4,103z M-73,107c0-0.2,0.1-0.4,0.2-0.6c0.2-0.2,0.3-0.2,0.6-0.2
	c0.2,0,0.4,0.1,0.6,0.2c0.2,0.2,0.2,0.4,0.2,0.6c0,0.2-0.1,0.4-0.2,0.6c-0.2,0.2-0.3,0.2-0.6,0.2c-0.2,0-0.4-0.1-0.6-0.2
	C-72.9,107.5-73,107.3-73,107z M-73,110.7c0-0.2,0.1-0.4,0.2-0.6c0.2-0.2,0.3-0.2,0.6-0.2c0.2,0,0.4,0.1,0.6,0.2
	c0.2,0.2,0.2,0.3,0.2,0.6s-0.1,0.4-0.2,0.6c-0.2,0.2-0.3,0.2-0.6,0.2c-0.2,0-0.4-0.1-0.6-0.2C-72.9,111.1-73,110.9-73,110.7z
	 M-69.8,109c0-0.2,0.1-0.4,0.2-0.6c0.2-0.2,0.3-0.2,0.6-0.2c0.2,0,0.4,0.1,0.6,0.3c0.2,0.2,0.3,0.4,0.3,0.6c0,0.2-0.1,0.4-0.2,0.6
	c-0.2,0.2-0.4,0.2-0.6,0.2c-0.2,0-0.4-0.1-0.6-0.2C-69.7,109.4-69.8,109.2-69.8,109z M-69.8,105.3c0-0.2,0.1-0.4,0.2-0.6
	c0.2-0.2,0.4-0.2,0.6-0.2c0.2,0,0.4,0.1,0.6,0.2c0.2,0.2,0.2,0.4,0.2,0.6c0,0.2-0.1,0.4-0.2,0.6c-0.2,0.2-0.4,0.2-0.6,0.2
	c-0.2,0-0.4-0.1-0.6-0.2C-69.7,105.8-69.8,105.6-69.8,105.3z M-69.8,112.6c0-0.2,0.1-0.4,0.2-0.6c0.2-0.2,0.3-0.2,0.6-0.2
	c0.2,0,0.4,0.1,0.6,0.2c0.2,0.2,0.2,0.4,0.2,0.6c0,0.2-0.1,0.4-0.2,0.6c-0.2,0.2-0.4,0.2-0.6,0.2c-0.2,0-0.4-0.1-0.6-0.2
	C-69.7,113-69.8,112.8-69.8,112.6z M-66.6,107c0-0.2,0.1-0.4,0.2-0.6c0.2-0.2,0.4-0.2,0.6-0.2c0.2,0,0.4,0.1,0.6,0.2
	c0.2,0.2,0.2,0.4,0.2,0.6c0,0.2-0.1,0.4-0.2,0.6c-0.2,0.2-0.3,0.2-0.6,0.2c-0.2,0-0.4-0.1-0.6-0.2C-66.5,107.5-66.6,107.2-66.6,107z
	 M-66.6,110.7c0-0.2,0.1-0.4,0.2-0.6c0.2-0.2,0.4-0.2,0.6-0.2c0.2,0,0.4,0.1,0.6,0.2c0.2,0.1,0.2,0.3,0.2,0.6s-0.1,0.4-0.2,0.6
	c-0.2,0.2-0.3,0.2-0.6,0.2c-0.2,0-0.4-0.1-0.6-0.2C-66.5,111.1-66.6,110.9-66.6,110.7z"/>
</svg>
