<svg version="1.1" xmlns="http://www.w3.org/2000/svg" xmlns:xlink="http://www.w3.org/1999/xlink" x="0px" y="0px"
	 viewBox="-168.4 183.9 20.6 22.6" style="enable-background:new -168.4 183.9 20.6 22.6;" xml:space="preserve">
<path style="fill:#FBC531;" d="M-164.6,200.3l-0.7,1.7c0,0.1,0,0.2,0.1,0.2h2.1l-1,4.3h0.3l3.9-5.8v-0.1c0-0.1-0.1-0.1-0.1-0.1h-2.2l2.5-4.6
	c0.1-0.1,0-0.2-0.1-0.2h-2.9c-0.1,0-0.2,0.1-0.2,0.2l-1.1,2.9"/>
<line style="fill:none;stroke:#00A8FF;stroke-width:1.75;stroke-linecap:round;stroke-miterlimit:10;" x1="-157.2" y1="194.6" x2="-157.2" y2="204.1"/>
<line style="fill:none;stroke:#00A8FF;stroke-width:1.75;stroke-linecap:round;stroke-miterlimit:10;" x1="-153.9" y1="193.7" x2="-153.9" y2="203.2"/>
<path style="fill:#d4dbdb;" d="M-168.4,192.3c0,1.2,0.5,2.2,1.4,3c0.9,0.8,2.1,1.3,3.4,1.3c0.1,0,11,0.1,11.1,0.1c0.9,0,1.7-0.3,2.4-0.6
	c0.7-0.4,1.3-1,1.7-1.6c0.4-0.7,0.6-1.4,0.6-2.1c0-0.8-0.2-1.5-0.7-2.2c-0.4-0.7-1-1.2-1.8-1.6c-0.8-0.4-1.6-0.6-2.5-0.6h-0.3
	c-0.3-1.2-1-2.1-2.1-2.9c-1.1-0.8-2.3-1.2-3.7-1.2s-2.7,0.4-3.8,1.2s-1.8,1.8-2.1,3c-1.1,0.3-2,0.7-2.7,1.5
	C-168,190.3-168.4,191.3-168.4,192.3z"/>
</svg>
