<?xml version="1.0" encoding="utf-8"?>
<!-- Generator: Adobe Illustrator 19.1.0, SVG Export Plug-In . SVG Version: 6.00 Build 0)  -->
<svg version="1.1" id="Layer_1" xmlns="http://www.w3.org/2000/svg" xmlns:xlink="http://www.w3.org/1999/xlink" x="0px" y="0px"
	 viewBox="-79.4 93.4 20.8 20.5" style="enable-background:new -79.4 93.4 20.8 20.5;" xml:space="preserve">
<path d="M-79.4,102.9c0,1.1,0.3,2.1,1,3c0.7,0.9,1.5,1.5,2.6,1.8l-0.7,1.7c0,0.1,0,0.2,0.1,0.2h2.1l-1,4.3h0.3l3.9-5.8
	c0,0,0-0.1,0-0.1c0-0.1-0.1-0.1-0.1-0.1h-2.2l2.5-4.6c0.1-0.1,0-0.2-0.1-0.2h-2.9c-0.1,0-0.2,0.1-0.2,0.2l-1.1,2.9
	c-0.7-0.2-1.3-0.6-1.8-1.2c-0.5-0.6-0.7-1.3-0.7-2c0-0.8,0.3-1.6,0.9-2.2c0.6-0.6,1.3-1,2.1-1.1l0.5-0.1c0.1,0,0.2-0.1,0.2-0.2
	l0.1-0.5c0.1-1.1,0.6-2,1.4-2.7c0.8-0.7,1.8-1.1,2.8-1.1s2,0.4,2.8,1.1c0.8,0.7,1.3,1.6,1.4,2.7l0.1,0.6c0,0.1,0.1,0.2,0.2,0.2h1.6
	c0.9,0,1.7,0.3,2.3,0.9c0.6,0.6,1,1.4,1,2.3c0,0.8-0.3,1.6-0.9,2.2s-1.3,1-2.2,1c-0.1,0-0.2,0.1-0.2,0.2v1.4c0,0.1,0.1,0.2,0.2,0.2
	c1.3,0,2.5-0.6,3.4-1.5c0.9-1,1.4-2.1,1.4-3.4c0-0.9-0.2-1.7-0.7-2.5c-0.4-0.8-1-1.4-1.8-1.8c-0.8-0.4-1.6-0.7-2.5-0.7h-0.3
	c-0.3-1.3-1-2.4-2.1-3.3c-1.1-0.8-2.3-1.3-3.7-1.3c-1.4,0-2.7,0.4-3.8,1.3c-1.1,0.9-1.8,2-2.1,3.4c-1.1,0.3-2,0.8-2.7,1.7
	C-79,100.7-79.4,101.8-79.4,102.9z M-71.2,112.6c0,0.4,0.2,0.7,0.6,0.8c0,0,0,0,0.1,0c0.1,0,0.1,0,0.1,0c0.2,0,0.3,0,0.5-0.2
	c0.2-0.1,0.3-0.3,0.3-0.5l2.2-8.7c0.1-0.2,0-0.4-0.1-0.6c-0.1-0.2-0.3-0.3-0.5-0.4c-0.2,0-0.3,0-0.3,0c-0.2,0-0.3,0.1-0.5,0.2
	c-0.2,0.1-0.3,0.2-0.3,0.5l-2.3,8.7C-71.2,112.4-71.2,112.5-71.2,112.6z M-67.1,109.6c0,0.1,0,0.3,0.1,0.4c0.1,0.2,0.3,0.4,0.5,0.4
	c0.1,0,0.2,0,0.3,0c0.1,0,0.2,0,0.3-0.1c0.2-0.1,0.3-0.3,0.4-0.6l1.4-5.7c0-0.1,0-0.2,0-0.3c0-0.2,0-0.3-0.2-0.5s-0.3-0.3-0.5-0.3
	c-0.2,0-0.3,0-0.3,0c-0.2,0-0.3,0-0.5,0.2c-0.1,0.1-0.2,0.2-0.3,0.4l-1.5,5.7c0,0,0,0.1,0,0.1C-67.1,109.5-67.1,109.5-67.1,109.6z"
	/>
</svg>
