<svg version="1.1" id="Layer_1" xmlns="http://www.w3.org/2000/svg" xmlns:xlink="http://www.w3.org/1999/xlink" x="0px" y="0px"
	 viewBox="-167.9 178.5 21.8 22.5" style="enable-background:new -167.9 178.5 21.8 22.5;" xml:space="preserve">
<path style="fill:#d4dbdb;" d="M-167.9,190.6c0,0.7,0.4,1.3,1.1,1.8c1.3,0.9,3.3,1.4,6,1.4c1.2,0,2.3-0.1,3.3-0.3c1.1-0.2,2-0.6,2.7-1.1
	c0.7-0.5,1-1.1,1-1.8c0-0.2,0-0.4-0.1-0.6c1.4-0.3,2.5-0.8,3.3-1.4s1.2-1.2,1.2-2c0-0.2,0-0.4-0.1-0.6c2.3-0.8,3.4-1.9,3.4-3.3
	c0-0.9-0.5-1.7-1.5-2.3c-2-1.3-4.8-1.9-8.6-1.9c-1.8,0-3.4,0.2-4.8,0.5c-1.6,0.3-2.8,0.8-3.8,1.5s-1.4,1.5-1.4,2.3
	c0,0.5,0.2,1,0.5,1.4c-1.2,0.7-1.8,1.5-1.8,2.5c0,0.8,0.4,1.4,1.1,2C-167.4,189.1-167.9,189.8-167.9,190.6z M-167.3,195.1
	c0,0.7,0.5,1.3,1.3,1.7c0.9,0.4,2,0.6,3.4,0.6s2.5-0.2,3.4-0.6c0.9-0.4,1.4-1,1.4-1.7c0-0.3-0.1-0.5-0.3-0.7s-0.4-0.3-0.7-0.3
	c-0.2,0-0.4,0.1-0.6,0.2c-0.2,0.1-0.3,0.3-0.3,0.6c-0.2,0.2-0.6,0.3-1.1,0.4s-1.1,0.2-1.8,0.2c-1.1,0-2-0.2-2.7-0.5
	c0.2-0.2,0.2-0.4,0.3-0.6c0-0.2,0-0.4-0.1-0.6c-0.2-0.2-0.4-0.4-0.6-0.4c-0.2-0.1-0.5,0-0.7,0.1C-167,194-167.3,194.5-167.3,195.1z
	 M-166,190.6c0,0,0.1-0.1,0.2-0.2c0.1-0.1,0.3-0.2,0.6-0.3s0.6-0.2,1-0.4l0.1-0.1c1.6,0.5,3.5,0.8,5.7,0.8c1,0,1.8,0,2.6-0.2
	l0.3,0.2c-0.1,0.2-0.3,0.3-0.6,0.5c-0.4,0.2-1,0.4-1.9,0.6c-0.8,0.2-1.7,0.2-2.7,0.2c-0.9,0-1.8-0.1-2.7-0.2
	c-0.8-0.2-1.5-0.4-1.9-0.6C-165.7,190.9-165.9,190.7-166,190.6z M-165.9,199c0,0.6,0.4,1.1,1.1,1.5c0.7,0.3,1.6,0.5,2.7,0.5
	c1.1,0,2-0.2,2.7-0.5c0.7-0.3,1.1-0.8,1.1-1.5c0-0.2-0.1-0.5-0.3-0.7c-0.2-0.2-0.4-0.3-0.7-0.3c-0.5,0-0.8,0.2-0.9,0.7
	c-0.4,0.2-1,0.4-2,0.4c-0.8,0-1.4-0.1-1.9-0.4c-0.2-0.5-0.4-0.7-0.9-0.7c-0.2,0-0.5,0.1-0.6,0.3C-165.8,198.5-165.9,198.7-165.9,199
	z M-165.7,186.6c0-0.1,0.1-0.2,0.2-0.3c0.2-0.3,0.7-0.6,1.4-0.9c1.9,1,4.6,1.5,7.9,1.5c1.7,0,3.3-0.2,4.8-0.5v0.1
	c0,0.2-0.1,0.3-0.3,0.5c-0.4,0.4-1.2,0.7-2.3,1c-1.2,0.4-2.7,0.5-4.6,0.5c-1.8,0-3.4-0.2-4.6-0.5c-1.2-0.3-1.9-0.7-2.3-1
	C-165.6,186.9-165.7,186.7-165.7,186.6z M-164.4,182.7c0-0.2,0.1-0.4,0.3-0.6c0.5-0.4,1.3-0.8,2.7-1.2s3.1-0.6,5.1-0.6
	s3.7,0.2,5.2,0.6c1.3,0.4,2.2,0.8,2.7,1.2c0.2,0.2,0.3,0.4,0.3,0.6s-0.1,0.3-0.3,0.6c-0.4,0.4-1.3,0.8-2.7,1.2
	c-1.5,0.4-3.2,0.6-5.2,0.6s-3.7-0.2-5.1-0.6c-1.3-0.4-2.2-0.8-2.7-1.2C-164.2,183.1-164.4,182.9-164.4,182.7z"/>
</svg>
