<?xml version="1.0" encoding="utf-8"?>
<!-- Generator: Adobe Illustrator 19.1.0, SVG Export Plug-In . SVG Version: 6.00 Build 0)  -->
<svg version="1.1" id="Layer_1" xmlns="http://www.w3.org/2000/svg" xmlns:xlink="http://www.w3.org/1999/xlink" x="0px" y="0px"
	 viewBox="-79.9 89 21.8 22.6" style="enable-background:new -79.9 89 21.8 22.6;" xml:space="preserve">
<path d="M-79.9,101.2c0,0.7,0.4,1.3,1.1,1.8c1.3,0.9,3.3,1.4,6,1.4c1.2,0,2.3-0.1,3.3-0.3c1.1-0.2,2-0.6,2.7-1.1s1-1.1,1-1.8
	c0-0.2,0-0.4-0.1-0.6c1.4-0.3,2.5-0.8,3.3-1.4c0.8-0.6,1.2-1.2,1.2-2c0-0.2,0-0.4-0.1-0.6c2.3-0.8,3.4-1.9,3.4-3.3
	c0-0.9-0.5-1.7-1.5-2.3c-2-1.3-4.8-1.9-8.6-1.9c-1.8,0-3.4,0.2-4.8,0.5c-1.6,0.3-2.8,0.8-3.8,1.5s-1.4,1.5-1.4,2.3
	c0,0.5,0.2,1,0.5,1.4c-1.2,0.7-1.8,1.5-1.8,2.5c0,0.8,0.4,1.4,1.1,2C-79.4,99.7-79.9,100.4-79.9,101.2z M-79.3,105.7
	c0,0.7,0.5,1.3,1.3,1.7c0.9,0.4,2,0.6,3.4,0.6c1.4,0,2.5-0.2,3.4-0.6c0.9-0.4,1.4-1,1.4-1.7c0-0.3-0.1-0.5-0.3-0.7
	c-0.2-0.2-0.4-0.3-0.7-0.3c-0.2,0-0.4,0.1-0.6,0.2s-0.3,0.3-0.3,0.6c-0.2,0.2-0.6,0.3-1.1,0.4c-0.5,0.1-1.1,0.2-1.8,0.2
	c-1.1,0-2-0.2-2.7-0.5c0.2-0.2,0.2-0.4,0.3-0.6c0-0.2,0-0.4-0.1-0.6c-0.2-0.2-0.4-0.4-0.6-0.4c-0.2-0.1-0.5,0-0.7,0.1
	C-79,104.6-79.3,105.1-79.3,105.7z M-78,101.2c0,0,0.1-0.1,0.2-0.2c0.1-0.1,0.3-0.2,0.6-0.3s0.6-0.2,1-0.4l0.1-0.1
	c1.6,0.5,3.5,0.8,5.7,0.8c1,0,1.8,0,2.6-0.2l0.3,0.2c-0.1,0.2-0.3,0.3-0.6,0.5c-0.4,0.2-1,0.4-1.9,0.6c-0.8,0.2-1.7,0.2-2.7,0.2
	c-0.9,0-1.8-0.1-2.7-0.2c-0.8-0.2-1.5-0.4-1.9-0.6C-77.7,101.5-77.9,101.3-78,101.2z M-77.9,109.6c0,0.6,0.4,1.1,1.1,1.5
	c0.7,0.3,1.6,0.5,2.7,0.5c1.1,0,2-0.2,2.7-0.5c0.7-0.3,1.1-0.8,1.1-1.5c0-0.2-0.1-0.5-0.3-0.7c-0.2-0.2-0.4-0.3-0.7-0.3
	c-0.5,0-0.8,0.2-0.9,0.7c-0.4,0.2-1,0.4-2,0.4c-0.8,0-1.4-0.1-1.9-0.4c-0.2-0.5-0.4-0.7-0.9-0.7c-0.2,0-0.5,0.1-0.6,0.3
	C-77.8,109.1-77.9,109.3-77.9,109.6z M-77.7,97.2c0-0.1,0.1-0.2,0.2-0.3c0.2-0.3,0.7-0.6,1.4-0.9c1.9,1,4.6,1.5,7.9,1.5
	c1.7,0,3.3-0.2,4.8-0.5v0.1c0,0.2-0.1,0.3-0.3,0.5c-0.4,0.4-1.2,0.7-2.3,1c-1.2,0.4-2.7,0.5-4.6,0.5c-1.8,0-3.4-0.2-4.6-0.5
	c-1.2-0.3-1.9-0.7-2.3-1C-77.6,97.5-77.7,97.3-77.7,97.2z M-76.4,93.3c0-0.2,0.1-0.4,0.3-0.6c0.5-0.4,1.3-0.8,2.7-1.2
	c1.4-0.4,3.1-0.6,5.1-0.6c2,0,3.7,0.2,5.2,0.6c1.3,0.4,2.2,0.8,2.7,1.2c0.2,0.2,0.3,0.4,0.3,0.6c0,0.2-0.1,0.3-0.3,0.6
	c-0.4,0.4-1.3,0.8-2.7,1.2c-1.5,0.4-3.2,0.6-5.2,0.6c-2,0-3.7-0.2-5.1-0.6c-1.3-0.4-2.2-0.8-2.7-1.2C-76.2,93.7-76.4,93.5-76.4,93.3
	z"/>
</svg>
