<svg version="1.1" id="Layer_1" xmlns="http://www.w3.org/2000/svg" xmlns:xlink="http://www.w3.org/1999/xlink" x="0px" y="0px"
	 viewBox="-168.3 195.6 20.7 7.2" style="enable-background:new -168.3 195.6 20.7 7.2;" xml:space="preserve">
<path style="fill:#d4dbdb;" d="M-168.3,199.2c0-0.2,0.1-0.4,0.2-0.6c0.2-0.2,0.3-0.2,0.6-0.2h12.1c0.2,0,0.4,0.1,0.5,0.2s0.2,0.3,0.2,0.6
	c0,0.2-0.1,0.4-0.2,0.5c-0.1,0.1-0.3,0.2-0.5,0.2h-12.1c-0.2,0-0.4-0.1-0.6-0.2C-168.3,199.6-168.3,199.4-168.3,199.2z
	 M-165.9,196.3c0-0.2,0.1-0.4,0.2-0.5c0.2-0.2,0.3-0.2,0.6-0.2h12.1c0.2,0,0.4,0.1,0.5,0.2c0.1,0.1,0.2,0.3,0.2,0.5
	s-0.1,0.4-0.2,0.6c-0.2,0.1-0.3,0.2-0.5,0.2h-12.1c-0.2,0-0.4-0.1-0.6-0.2C-165.8,196.7-165.9,196.5-165.9,196.3z M-164.3,202
	c0-0.2,0.1-0.4,0.2-0.5c0.1-0.1,0.3-0.2,0.5-0.2h12.1c0.2,0,0.4,0.1,0.6,0.2c0.1,0.1,0.2,0.3,0.2,0.5c0,0.2-0.1,0.4-0.2,0.6
	c-0.1,0.1-0.3,0.2-0.6,0.2h-12.1c-0.2,0-0.4-0.1-0.6-0.2C-164.3,202.5-164.3,202.3-164.3,202z M-153.7,199.2c0-0.2,0.1-0.4,0.2-0.6
	s0.3-0.2,0.6-0.2h4.5c0.2,0,0.4,0.1,0.6,0.2c0.2,0.2,0.2,0.3,0.2,0.6c0,0.3-0.1,0.4-0.2,0.5c-0.1,0.1-0.3,0.2-0.6,0.2h-4.5
	c-0.2,0-0.4-0.1-0.6-0.2C-153.7,199.6-153.7,199.4-153.7,199.2z"/>
</svg>
