<?xml version="1.0" encoding="utf-8"?>
<!-- Generator: Adobe Illustrator 19.1.0, SVG Export Plug-In . SVG Version: 6.00 Build 0)  -->
<svg version="1.1" id="Layer_1" xmlns="http://www.w3.org/2000/svg" xmlns:xlink="http://www.w3.org/1999/xlink" x="0px" y="0px"
	 viewBox="-79.3 97.8 20.7 7.3" style="enable-background:new -79.3 97.8 20.7 7.3;" xml:space="preserve">
<path d="M-79.3,101.5c0-0.2,0.1-0.4,0.2-0.6c0.2-0.2,0.3-0.2,0.6-0.2h12.1c0.2,0,0.4,0.1,0.5,0.2c0.1,0.1,0.2,0.3,0.2,0.6
	c0,0.2-0.1,0.4-0.2,0.5c-0.1,0.1-0.3,0.2-0.5,0.2h-12.1c-0.2,0-0.4-0.1-0.6-0.2C-79.3,101.9-79.3,101.7-79.3,101.5z M-76.9,98.6
	c0-0.2,0.1-0.4,0.2-0.5c0.2-0.2,0.3-0.2,0.6-0.2h12.1c0.2,0,0.4,0.1,0.5,0.2c0.1,0.1,0.2,0.3,0.2,0.5s-0.1,0.4-0.2,0.6
	c-0.2,0.1-0.3,0.2-0.5,0.2h-12.1c-0.2,0-0.4-0.1-0.6-0.2C-76.8,99-76.9,98.8-76.9,98.6z M-75.3,104.3c0-0.2,0.1-0.4,0.2-0.5
	c0.1-0.1,0.3-0.2,0.5-0.2h12.1c0.2,0,0.4,0.1,0.6,0.2c0.1,0.1,0.2,0.3,0.2,0.5s-0.1,0.4-0.2,0.6c-0.1,0.1-0.3,0.2-0.6,0.2h-12.1
	c-0.2,0-0.4-0.1-0.6-0.2C-75.3,104.8-75.3,104.6-75.3,104.3z M-64.7,101.5c0-0.2,0.1-0.4,0.2-0.6c0.1-0.2,0.3-0.2,0.6-0.2h4.5
	c0.2,0,0.4,0.1,0.6,0.2c0.2,0.2,0.2,0.3,0.2,0.6s-0.1,0.4-0.2,0.5c-0.1,0.1-0.3,0.2-0.6,0.2h-4.5c-0.2,0-0.4-0.1-0.6-0.2
	C-64.7,101.9-64.7,101.7-64.7,101.5z"/>
</svg>
